<svg width="217" height="217" viewBox="0 0 217 217" fill="none" xmlns="http://www.w3.org/2000/svg">
<g clip-path="url(#clip0_271_23)">
<rect x="46.457" y="155.614" width="21.1133" height="38.3226" transform="rotate(45 46.457 155.614)" fill="#9333EA"/>
<path fill-rule="evenodd" clip-rule="evenodd" d="M93.9433 203.641C74.0478 199.683 55.7727 189.915 41.4289 175.571L53.8544 163.146C87.0456 196.337 140.859 196.337 174.051 163.146C207.242 129.954 207.242 76.1404 174.051 42.9492C140.86 9.75801 87.0457 9.75786 53.8544 42.9492L41.4289 30.5237C55.7728 16.1799 74.0478 6.41149 93.9434 2.45417C113.839 -1.50319 134.461 0.527755 153.202 8.29065C171.943 16.0535 187.962 29.1993 199.231 46.0659C210.501 62.9325 216.516 82.762 216.517 103.048C216.517 123.333 210.501 143.162 199.231 160.029C187.962 176.896 171.943 190.041 153.202 197.804C134.461 205.567 113.839 207.598 93.9433 203.641Z" fill="#9333EA"/>
<circle cx="10.9238" cy="206.076" r="10.5566" transform="rotate(45 10.9238 206.076)" fill="#9333EA"/>
<path d="M51.2504 64.3192C52.2579 62.6775 53.7998 60.3966 54.6316 59.2529C55.442 58.09 57.9479 55.2082 60.1564 52.8308C62.3649 50.4535 65.1834 47.6976 66.409 46.6756C67.6346 45.6536 69.724 44.0563 71.0354 43.1111C72.3468 42.166 74.8614 40.5258 76.6556 39.4736C78.4497 38.4214 81.3988 36.9007 83.1852 36.0729C84.9716 35.2451 87.7787 34.0985 89.4186 33.5635C91.0371 33.0094 93.7407 32.194 95.366 31.7616C97.0127 31.3485 100.012 30.721 102.01 30.3911C104.029 30.0804 107.734 29.7005 110.233 29.5884C112.772 29.474 116.233 29.4533 117.95 29.5659C119.686 29.657 122.616 29.9699 124.505 30.2363C126.374 30.524 129.132 31.0293 130.638 31.377C132.144 31.7247 134.96 32.5527 136.951 33.1802C138.922 33.829 142.129 35.0843 144.114 35.9767C146.099 36.8692 149.075 38.3809 150.74 39.3718C152.405 40.3627 154.768 41.8256 155.953 42.618C157.202 43.468 160.191 45.9158 162.957 48.3958C165.724 50.8758 168.483 53.5801 169.464 54.7294C170.38 55.8211 172.113 58.0301 173.322 59.6153C174.491 61.2026 176.499 64.3133 177.761 66.4862C179.026 68.6997 180.889 72.49 181.902 74.9408C182.894 77.3724 184.129 80.8702 184.657 82.6545C185.166 84.4601 185.88 87.3747 186.221 89.1078C186.544 90.8621 186.973 93.7919 187.157 95.6147C187.341 97.4376 187.534 100.502 187.562 102.455C187.59 104.409 187.496 107.448 187.351 109.206C187.205 110.965 186.839 113.876 186.55 115.622C186.24 117.349 185.696 119.984 185.331 121.47C184.967 122.955 184.229 125.417 183.704 126.952C183.18 128.487 182.018 131.379 181.151 133.339C180.284 135.299 178.778 138.229 177.85 139.826C176.943 141.442 175.465 143.781 174.619 145.027C173.736 146.356 171.297 149.337 168.786 152.137C166.295 154.916 163.617 157.644 162.471 158.622C161.382 159.535 159.158 161.281 157.535 162.487C155.913 163.693 152.807 165.691 150.657 166.925C148.348 168.249 144.639 170.013 141.672 171.209C138.903 172.313 134.806 173.691 132.597 174.256C130.389 174.821 127.248 175.476 125.612 175.706C123.996 175.954 120.695 176.272 118.279 176.421C115.883 176.548 112.322 176.594 110.402 176.492C108.482 176.391 105.368 176.067 103.48 175.801C101.61 175.513 98.7692 174.971 97.2009 174.607C95.6135 174.263 93.0263 173.525 91.4511 173.038C89.8952 172.53 86.7933 171.331 84.5794 170.348C82.3463 169.388 79.4552 167.953 78.1292 167.188C76.784 166.445 74.5473 165.057 73.1309 164.134C71.7338 163.19 68.9472 161.078 66.919 159.414C64.6954 157.537 62.2246 155.245 60.6002 153.518C59.1474 151.946 56.8805 149.297 55.607 147.654C54.3335 146.011 52.4275 143.262 51.3954 141.565C50.3632 139.869 48.8917 137.239 48.1338 135.711C47.3567 134.205 46.1886 131.538 45.5005 129.803C44.8124 128.068 43.8551 125.167 43.3272 123.382C42.8185 121.577 42.1048 118.662 41.7631 116.929C41.4213 115.196 40.9919 112.266 40.808 110.444C40.6242 108.621 40.4508 105.535 40.4225 103.582C40.375 101.65 40.4882 98.5894 40.6338 96.8306C40.7793 95.0717 41.1622 92.0989 41.4656 90.2502C41.7905 88.4207 42.5037 85.1657 43.0969 83.0369C43.6901 80.9081 44.6606 77.8838 45.2857 76.3235C45.9109 74.7631 47.0835 72.0742 47.9049 70.3813C48.7262 68.6884 50.2429 65.9609 51.2504 64.3192Z" fill="#010002"/>
<path d="M63.1375 67.4555C64.0054 66.2285 65.101 64.7043 65.6161 64.0865C66.0907 63.4708 66.9868 62.3848 67.5595 61.7028C68.1513 60.9995 68.9078 60.3281 69.2259 60.1891C69.5439 60.05 70.2411 60.1352 70.7015 60.3551C71.2025 60.5729 72.6732 61.737 73.9599 62.8905C75.2467 64.0439 78.5867 67.308 81.393 70.132C84.1777 72.9368 86.8 75.7502 87.8988 77.5449L86.9068 78.7378C86.3748 79.4176 85.2171 80.9247 84.4068 82.0876C83.5964 83.2505 82.4378 85.1038 81.8666 86.1726C81.2953 87.2414 80.3772 89.3874 79.8096 90.8836C78.9942 93.0445 78.5694 93.8204 77.7407 94.6585C77.0631 95.2849 76.2354 95.7768 75.3725 96.0058C74.3089 96.2862 72.6471 96.069 66.2206 94.7809C61.9164 93.93 57.8536 93.0256 57.2093 92.7951C56.5029 92.5475 55.7209 92.0392 55.2445 91.535C54.811 91.0693 54.2904 90.1399 54.07 89.4797C53.7501 88.4989 53.8501 87.7402 54.6865 84.8655C55.2313 82.9633 56.2899 80.0564 57.03 78.3678C57.7701 76.6792 59.0692 74.0651 59.938 72.4918C60.8282 70.9378 62.2482 68.6633 63.1375 67.4555Z" fill="#D8B4FE"/>
<path d="M51.9555 105.128C51.8615 104.543 51.9331 103.643 52.1471 103.102C52.3611 102.561 52.8863 101.76 53.2482 101.313C53.6506 100.864 54.4738 100.291 55.093 100.075C55.9084 99.7261 58.3947 99.7571 64.5679 100.163C69.1674 100.469 73.5492 100.888 74.3153 101.112C75.2033 101.329 76.0857 101.812 76.7291 102.389C77.5869 103.158 77.7462 103.455 77.6723 104.314C77.6129 105.07 77.3898 105.449 76.7483 105.992C76.3006 106.362 75.3917 106.858 74.7748 107.115C74.177 107.35 69.9166 108.003 65.3459 108.572C59.5615 109.286 56.6206 109.503 55.6706 109.268C54.9474 109.083 54.0266 108.643 53.6406 108.297C53.276 107.97 52.7928 107.344 52.5646 106.908C52.3388 106.513 52.0901 105.712 51.9555 105.128Z" fill="#D8B4FE"/>
<path d="M91.7654 89.4552C92.2692 88.6344 92.9431 87.5805 93.2643 87.1359C93.5856 86.6912 94.6419 85.556 95.5855 84.5897C96.5506 83.6425 98.3219 82.1843 99.5398 81.3867C100.736 80.5698 102.674 79.5304 103.807 79.0426C104.962 78.5741 106.781 77.9686 107.885 77.686C108.99 77.4035 111.092 77.129 112.554 77.0515C114.016 76.9739 116.118 77.0457 117.247 77.2098C118.355 77.3546 120.231 77.7642 121.432 78.1077C122.613 78.4727 124.718 79.318 126.082 80.0398C128.033 81.0562 129.177 81.8507 131.172 83.6386C133.081 85.3496 134.121 86.4754 135.23 88.0863C136.049 89.2442 137.064 91.0026 137.525 91.9555C138.007 92.9277 138.69 94.9277 139.097 96.3722C139.485 97.838 139.887 100.281 139.933 101.826C140.019 103.369 139.954 105.469 139.808 106.495C139.662 107.521 139.275 109.333 138.935 110.532C138.574 111.712 137.735 113.813 137.017 115.175C135.989 117.184 135.253 118.221 133.337 120.359C131.421 122.497 130.47 123.341 128.585 124.582C127.309 125.443 125.233 126.551 123.997 127.024C122.782 127.516 120.923 128.124 119.897 128.361C118.893 128.618 116.791 128.893 115.267 128.953C113.724 129.035 111.622 128.963 110.595 128.814C109.569 128.665 107.754 128.273 106.554 127.929C105.372 127.564 103.268 126.719 101.904 125.997C99.912 124.983 98.8297 124.205 96.8138 122.398C95.1839 120.937 93.7548 119.425 92.9385 118.307C92.2508 117.305 91.2402 115.628 90.6912 114.558C90.1615 113.466 89.478 111.812 89.1795 110.85C88.8811 109.889 88.4559 108.12 88.2656 106.908C88.0562 105.718 87.9343 103.912 87.9608 102.933C87.9873 101.954 88.0721 100.565 88.1315 99.8087C88.2122 99.0714 88.5868 97.4022 88.9199 96.0813C89.2936 94.7583 89.8499 93.0591 90.2149 92.3067C90.5393 91.5565 91.2402 90.2568 91.7654 89.4552Z" fill="#D8B4FE"/>
<path d="M151.403 104.434C150.768 104.02 150.521 103.606 150.399 102.879C150.255 102.133 150.373 101.699 150.91 101.101C151.331 100.63 152.276 100.051 153.194 99.7171C154.072 99.3855 158.533 98.6805 163.066 98.155C168.628 97.4731 171.69 97.2496 172.437 97.495C173.058 97.6657 173.983 98.1868 174.498 98.6482C175.013 99.1095 175.524 99.8765 175.723 100.518C175.877 101.08 175.932 102.054 175.823 102.65C175.716 103.287 175.293 104.104 174.814 104.638C174.373 105.13 173.593 105.741 173.077 105.972C172.601 106.201 171.573 106.398 170.842 106.437C170.109 106.435 166.109 106.281 161.941 106.054C157.755 105.849 153.867 105.525 153.287 105.353C152.707 105.18 151.848 104.757 151.403 104.434Z" fill="#D8B4FE"/>
<path d="M145.567 120.911C146.232 119.695 147.178 117.69 147.678 116.442C148.157 115.175 148.93 113.708 149.409 113.174C149.867 112.62 150.664 111.946 151.157 111.656C151.671 111.384 152.467 111.057 152.928 110.93C153.411 110.823 157.573 111.315 162.217 112.046C167.25 112.818 171.019 113.575 171.546 113.893C172.03 114.173 172.738 114.807 173.112 115.296C173.483 115.745 173.861 116.662 173.918 117.331C174.017 117.997 173.849 119.35 173.581 120.382C173.291 121.396 172.61 123.407 172.079 124.82C171.569 126.252 170.78 128.167 170.362 129.065C169.944 129.962 169.063 131.679 168.398 132.895C167.755 134.131 166.448 136.236 165.508 137.63C164.568 139.024 162.846 141.375 161.646 142.844C160.467 144.332 159.262 145.719 158.927 145.92C158.633 146.119 158.004 146.173 157.529 146.055C157.052 145.897 156.236 145.513 155.688 145.176C155.158 144.817 152.104 141.925 148.89 138.735C145.677 135.546 142.497 132.233 141.756 131.376C141.035 130.498 140.388 129.494 140.286 129.133C140.132 128.571 140.391 128.109 142.215 125.773C143.375 124.306 144.881 122.109 145.567 120.911Z" fill="#D8B4FE"/>
<path d="M104.449 103.524C104.376 102.225 104.525 100.894 104.917 99.8955C105.324 98.7947 105.94 97.805 106.899 96.7361C107.854 95.6265 108.692 94.9509 109.821 94.3819C110.811 93.8815 112.116 93.5475 113.253 93.4872C114.269 93.4334 115.783 93.5567 116.632 93.817C117.935 94.1755 118.484 94.5129 120.221 96.0701C121.958 97.6273 122.353 98.1358 122.852 99.3921C123.181 100.189 123.49 101.7 123.547 102.715C123.614 103.892 123.421 105.185 123.015 106.286C122.462 107.68 122.049 108.313 120.739 109.645C119.566 110.867 118.743 111.441 117.647 111.885C116.851 112.213 115.341 112.517 114.326 112.571C113.189 112.631 111.854 112.437 110.814 112.044C109.69 111.615 108.698 110.996 107.668 110.073C106.639 109.15 105.915 108.232 105.345 107.142C104.839 106.11 104.505 104.886 104.449 103.524Z" fill="#010002"/>
</g>
<defs>
<clipPath id="clip0_271_23">
<rect width="217" height="217" fill="white"/>
</clipPath>
</defs>
</svg>
