<svg width="248" height="248" viewBox="0 0 248 248" fill="none" xmlns="http://www.w3.org/2000/svg">
<g clip-path="url(#clip0_271_37)">
<rect x="88.2549" y="137.386" width="36.0452" height="82.2669" transform="rotate(45 88.2549 137.386)" fill="#9333EA"/>
<path d="M56.6043 32.7955C71.9183 17.4815 91.4295 7.05256 112.671 2.82745C133.912 -1.39767 155.929 0.770811 175.937 9.05868C195.946 17.3466 213.048 31.3816 225.08 49.3889C237.112 67.3963 243.534 88.5671 243.534 110.224C243.534 131.882 237.112 153.053 225.08 171.06C213.048 189.067 195.946 203.102 175.937 211.39C155.929 219.678 133.912 221.846 112.671 217.621C91.4295 213.396 71.9183 202.967 56.6043 187.653L134.033 110.224L56.6043 32.7955Z" fill="#9333EA"/>
<path d="M65.4883 67.8872C66.5897 66.0925 68.2752 63.5991 69.1845 62.3488C70.0704 61.0775 72.8099 57.9271 75.2242 55.3282C77.6385 52.7293 80.7197 49.7166 82.0596 48.5993C83.3994 47.4821 85.6835 45.7359 87.1171 44.7027C88.5507 43.6695 91.2997 41.8764 93.2611 40.7262C95.2224 39.5759 98.4463 37.9135 100.399 37.0086C102.352 36.1036 105.421 34.8501 107.214 34.2653C108.983 33.6595 111.938 32.7681 113.715 32.2955C115.515 31.8438 118.794 31.1579 120.978 30.7972C123.185 30.4575 127.236 30.0423 129.968 29.9197C132.744 29.7947 136.527 29.772 138.404 29.8951C140.302 29.9947 143.505 30.3368 145.57 30.628C147.613 30.9425 150.628 31.4949 152.274 31.875C153.921 32.2551 157 33.1603 159.176 33.8462C161.33 34.5555 164.836 35.9277 167.006 36.9034C169.176 37.879 172.43 39.5317 174.25 40.6149C176.07 41.6982 178.653 43.2974 179.948 44.1636C181.314 45.0928 184.581 47.7688 187.606 50.4799C190.63 53.1909 193.646 56.1473 194.718 57.4038C195.72 58.5972 197.615 61.012 198.937 62.745C200.214 64.4802 202.409 67.8809 203.789 70.2562C205.172 72.676 207.208 76.8196 208.316 79.4988C209.401 82.1569 210.751 85.9808 211.328 87.9313C211.884 89.9052 212.664 93.0915 213.038 94.986C213.391 96.9039 213.86 100.107 214.061 102.099C214.262 104.092 214.473 107.442 214.503 109.577C214.534 111.713 214.432 115.035 214.272 116.958C214.113 118.88 213.713 122.063 213.398 123.971C213.058 125.859 212.463 128.74 212.065 130.364C211.666 131.988 210.86 134.679 210.286 136.357C209.713 138.035 208.443 141.196 207.495 143.339C206.547 145.482 204.901 148.685 203.886 150.431C202.894 152.198 201.279 154.754 200.354 156.116C199.389 157.57 196.722 160.828 193.978 163.889C191.254 166.928 188.327 169.91 187.074 170.978C185.883 171.976 183.452 173.886 181.679 175.204C179.905 176.523 176.51 178.706 174.159 180.055C171.635 181.502 167.58 183.431 164.337 184.739C161.31 185.946 156.83 187.452 154.416 188.07C152.002 188.688 148.569 189.404 146.78 189.655C145.014 189.926 141.404 190.274 138.764 190.436C136.145 190.575 132.251 190.626 130.152 190.514C128.053 190.403 124.649 190.049 122.585 189.758C120.541 189.444 117.436 188.852 115.721 188.453C113.986 188.077 111.157 187.27 109.436 186.738C107.735 186.183 104.344 184.872 101.923 183.798C99.4821 182.748 96.3216 181.179 94.872 180.343C93.4015 179.531 90.9563 178.013 89.4079 177.005C87.8805 175.973 84.8343 173.664 82.617 171.845C80.1863 169.792 77.4852 167.286 75.7094 165.4C74.1211 163.681 71.643 160.785 70.2508 158.989C68.8586 157.193 66.775 154.187 65.6467 152.333C64.5184 150.478 62.9097 147.603 62.0812 145.933C61.2317 144.286 59.9547 141.371 59.2025 139.474C58.4503 137.578 57.4038 134.405 56.8266 132.455C56.2705 130.481 55.4903 127.295 55.1167 125.4C54.7431 123.506 54.2737 120.303 54.0727 118.31C53.8717 116.318 53.6821 112.944 53.6512 110.809C53.5993 108.697 53.723 105.351 53.8822 103.429C54.0413 101.506 54.4598 98.2559 54.7915 96.2349C55.1467 94.2349 55.9264 90.6765 56.5748 88.3494C57.2233 86.0222 58.2843 82.716 58.9677 81.0103C59.6511 79.3045 60.933 76.365 61.8309 74.5143C62.7288 72.6637 64.3869 69.6819 65.4883 67.8872Z" fill="#010002"/>
<path d="M78.4834 71.3159C79.4322 69.9745 80.6298 68.3082 81.193 67.6328C81.7118 66.9598 82.6915 65.7725 83.3175 65.027C83.9645 64.2581 84.7915 63.5242 85.1392 63.3722C85.4869 63.2202 86.249 63.3133 86.7524 63.5537C87.3001 63.7918 88.9078 65.0644 90.3144 66.3253C91.7211 67.5863 95.3724 71.1545 98.4402 74.2417C101.484 77.3079 104.351 80.3835 105.552 82.3455L104.468 83.6495C103.886 84.3927 102.621 86.0403 101.735 87.3116C100.849 88.5828 99.5824 90.6089 98.9579 91.7773C98.3334 92.9456 97.3298 95.2916 96.7092 96.9273C95.8178 99.2896 95.3534 100.138 94.4476 101.054C93.7068 101.739 92.802 102.277 91.8587 102.527C90.6959 102.833 88.8792 102.596 81.8539 101.188C77.1485 100.258 72.707 99.269 72.0027 99.0169C71.2305 98.7463 70.3756 98.1906 69.8548 97.6395C69.3809 97.1304 68.8118 96.1143 68.5708 95.3926C68.2212 94.3204 68.3304 93.491 69.2447 90.3483C69.8403 88.2689 70.9976 85.0911 71.8067 83.2451C72.6158 81.3992 74.0359 78.5414 74.9857 76.8215C75.9589 75.1226 77.5112 72.6362 78.4834 71.3159Z" fill="#D8B4FE"/>
<path d="M66.2593 112.499C66.1565 111.859 66.2348 110.876 66.4688 110.285C66.7027 109.693 67.2769 108.817 67.6724 108.329C68.1124 107.838 69.0123 107.211 69.6892 106.975C70.5806 106.594 73.2986 106.628 80.0471 107.071C85.0752 107.405 89.8654 107.864 90.7029 108.109C91.6736 108.347 92.6383 108.874 93.3417 109.505C94.2794 110.345 94.4535 110.67 94.3727 111.609C94.3079 112.436 94.064 112.85 93.3626 113.443C92.8733 113.848 91.8796 114.39 91.2052 114.671C90.5518 114.928 85.8943 115.643 80.8976 116.264C74.5741 117.045 71.3592 117.282 70.3206 117.025C69.53 116.822 68.5234 116.342 68.1014 115.963C67.7028 115.606 67.1746 114.922 66.9252 114.445C66.6783 114.013 66.4064 113.137 66.2593 112.499Z" fill="#D8B4FE"/>
<path d="M109.779 95.3658C110.33 94.4685 111.067 93.3164 111.418 92.8303C111.769 92.3442 112.924 91.1032 113.955 90.0468C115.01 89.0114 116.947 87.4173 118.278 86.5453C119.586 85.6523 121.704 84.516 122.943 83.9828C124.206 83.4707 126.194 82.8087 127.402 82.4998C128.609 82.1909 130.907 81.8909 132.506 81.8061C134.104 81.7213 136.401 81.7998 137.636 81.9791C138.847 82.1375 140.898 82.5852 142.211 82.9608C143.502 83.3597 145.803 84.2839 147.294 85.0729C149.427 86.1841 150.678 87.0526 152.858 89.0071C154.945 90.8776 156.083 92.1083 157.295 93.8693C158.19 95.1351 159.3 97.0574 159.803 98.0991C160.331 99.1619 161.077 101.348 161.522 102.927C161.946 104.53 162.385 107.2 162.436 108.889C162.53 110.576 162.459 112.872 162.299 113.994C162.14 115.115 161.717 117.097 161.345 118.407C160.95 119.697 160.033 121.994 159.248 123.482C158.125 125.679 157.32 126.812 155.225 129.15C153.13 131.487 152.091 132.41 150.03 133.766C148.636 134.708 146.366 135.919 145.015 136.436C143.687 136.974 141.654 137.638 140.533 137.898C139.436 138.179 137.137 138.479 135.471 138.545C133.784 138.634 131.486 138.556 130.364 138.393C129.242 138.23 127.258 137.801 125.946 137.425C124.654 137.026 122.354 136.102 120.862 135.313C118.685 134.204 117.502 133.354 115.298 131.379C113.516 129.782 111.954 128.128 111.062 126.907C110.31 125.811 109.205 123.978 108.605 122.808C108.026 121.614 107.279 119.806 106.952 118.755C106.626 117.704 106.161 115.77 105.953 114.445C105.724 113.144 105.591 111.17 105.62 110.1C105.649 109.03 105.742 107.511 105.807 106.684C105.895 105.878 106.304 104.053 106.669 102.609C107.077 101.163 107.685 99.3056 108.084 98.4831C108.439 97.6629 109.205 96.2421 109.779 95.3658Z" fill="#D8B4FE"/>
<path d="M174.974 111.741C174.281 111.288 174.011 110.835 173.877 110.041C173.72 109.225 173.849 108.751 174.436 108.097C174.897 107.583 175.93 106.949 176.933 106.584C177.893 106.222 182.769 105.451 187.724 104.876C193.805 104.131 197.153 103.887 197.97 104.155C198.648 104.341 199.66 104.911 200.222 105.415C200.785 105.92 201.344 106.758 201.562 107.459C201.73 108.073 201.789 109.139 201.67 109.791C201.554 110.487 201.092 111.38 200.568 111.964C200.086 112.501 199.233 113.17 198.668 113.422C198.148 113.673 197.025 113.888 196.226 113.93C195.424 113.928 191.051 113.76 186.495 113.512C181.918 113.287 177.669 112.934 177.035 112.745C176.401 112.556 175.462 112.094 174.974 111.741Z" fill="#D8B4FE"/>
<path d="M168.595 129.754C169.322 128.424 170.356 126.232 170.903 124.868C171.426 123.482 172.271 121.879 172.795 121.295C173.295 120.689 174.167 119.953 174.706 119.635C175.268 119.338 176.138 118.98 176.642 118.842C177.17 118.725 181.72 119.263 186.796 120.062C192.298 120.906 196.419 121.733 196.995 122.081C197.525 122.387 198.298 123.081 198.707 123.615C199.113 124.106 199.525 125.108 199.589 125.839C199.696 126.568 199.512 128.047 199.22 129.175C198.903 130.283 198.159 132.482 197.577 134.026C197.02 135.592 196.158 137.685 195.701 138.667C195.244 139.648 194.281 141.524 193.554 142.854C192.851 144.205 191.421 146.506 190.394 148.03C189.366 149.554 187.485 152.124 186.172 153.73C184.883 155.357 183.566 156.873 183.2 157.093C182.878 157.31 182.191 157.369 181.672 157.241C181.15 157.068 180.258 156.648 179.659 156.279C179.08 155.887 175.741 152.725 172.228 149.239C168.715 145.752 165.238 142.13 164.429 141.194C163.64 140.234 162.933 139.136 162.822 138.741C162.654 138.127 162.937 137.622 164.931 135.068C166.199 133.465 167.845 131.062 168.595 129.754Z" fill="#D8B4FE"/>
<path d="M123.645 110.746C123.565 109.326 123.729 107.87 124.157 106.779C124.602 105.576 125.275 104.494 126.323 103.325C127.368 102.112 128.284 101.374 129.518 100.752C130.6 100.205 132.027 99.8395 133.27 99.7736C134.38 99.7147 136.035 99.8495 136.964 100.134C138.388 100.526 138.988 100.895 140.887 102.597C142.786 104.3 143.218 104.855 143.763 106.229C144.123 107.1 144.461 108.752 144.523 109.861C144.596 111.149 144.386 112.562 143.941 113.765C143.337 115.289 142.886 115.981 141.454 117.437C140.171 118.774 139.271 119.4 138.074 119.887C137.203 120.244 135.552 120.577 134.442 120.636C133.199 120.702 131.74 120.49 130.603 120.06C129.374 119.591 128.29 118.914 127.164 117.905C126.039 116.897 125.248 115.892 124.624 114.701C124.071 113.573 123.707 112.234 123.645 110.746Z" fill="#010002"/>
<circle cx="22.0835" cy="229.045" r="18.1235" fill="#9333EA"/>
</g>
<defs>
<clipPath id="clip0_271_37">
<rect width="248" height="248" fill="white"/>
</clipPath>
</defs>
</svg>
